<svg width="32" height="32" viewBox="0 0 32 32" fill="none" xmlns="http://www.w3.org/2000/svg">
<path d="M4.66669 6H7.22517C7.92089 6 8.26875 6 8.53064 6.18876C8.79253 6.37752 8.90253 6.70753 9.12254 7.36754L10 10" stroke="#222222" stroke-linecap="round"/>
<path d="M23.3334 23.3333H10.7346C10.1234 23.3333 9.81781 23.3333 9.6065 23.2275C9.31335 23.0808 9.11073 22.7997 9.06423 22.4752C9.0307 22.2413 9.12734 21.9514 9.32061 21.3716V21.3716C9.53473 20.7292 9.64179 20.408 9.82318 20.1582C10.0746 19.8119 10.4305 19.5554 10.8385 19.4264C11.1328 19.3333 11.4714 19.3333 12.1485 19.3333H19.3334" stroke="#222222" stroke-linecap="round" stroke-linejoin="round"/>
<path d="M19.6787 19.3333H13.9709C12.6917 19.3333 12.0521 19.3333 11.5511 19.003C11.0502 18.6727 10.7982 18.0848 10.2943 16.909L9.1255 14.1818C8.316 12.2929 7.91125 11.3485 8.35586 10.6743C8.80047 10 9.82795 10 11.8829 10H22.1638C24.4628 10 25.6123 10 26.0459 10.7471C26.4795 11.4942 25.9092 12.4923 24.7685 14.4884L23.1517 17.3179C22.5897 18.3013 22.3088 18.793 21.8432 19.0632C21.3776 19.3333 20.8113 19.3333 19.6787 19.3333Z" stroke="#222222" stroke-linecap="round"/>
<circle cx="22.6666" cy="26.6666" r="1.33333" fill="#222222"/>
<circle cx="12" cy="26.6666" r="1.33333" fill="#222222"/>
</svg>
