<svg width="42" height="42" viewBox="0 0 42 42" fill="none" xmlns="http://www.w3.org/2000/svg">
<path d="M33.8203 10.111C35 11.8766 35 14.3344 35 19.25C35 24.1656 35 26.6234 33.8203 28.389C33.3096 29.1533 32.6533 29.8096 31.889 30.3203C30.3466 31.3509 28.276 31.4811 24.5 31.4976V31.5L22.5652 35.3695C21.9203 36.6593 20.0797 36.6593 19.4348 35.3695L17.5 31.5V31.4976C13.724 31.4811 11.6534 31.3509 10.111 30.3203C9.34668 29.8096 8.69042 29.1533 8.17971 28.389C7 26.6234 7 24.1656 7 19.25C7 14.3344 7 11.8766 8.17971 10.111C8.69042 9.34668 9.34668 8.69042 10.111 8.17971C11.8766 7 14.3344 7 19.25 7H22.75C27.6656 7 30.1234 7 31.889 8.17971C32.6533 8.69042 33.3096 9.34668 33.8203 10.111Z" stroke="#222222" stroke-linecap="round" stroke-linejoin="round"/>
<path d="M15.75 15.75L26.25 15.75" stroke="#222222" stroke-linecap="round" stroke-linejoin="round"/>
<path d="M15.75 22.75H21" stroke="#222222" stroke-linecap="round" stroke-linejoin="round"/>
</svg>
