<?xml version="1.0" encoding="UTF-8"?>
<svg id="Layer_1" data-name="Layer 1" xmlns="http://www.w3.org/2000/svg" viewBox="0 0 900 900">
  <defs>
    <style>
      .cls-1 {
        fill: #108de8;
      }
    </style>
  </defs>
  <path class="cls-1" d="m665.61,210.68c-64.41-127.59-224.8-171.88-345.35-95.3-111.36,70.74-147.62,220.39-81.27,335.38,53.64,92.96,160.18,140.34,262.09,117.61,108.18-24.13,191.77-121.32,192.3-242.64-.62-39.61-8.12-76.1-27.78-115.05Zm-73.79,115.96c0,22.2.02,44.4-.01,66.6-.01,8.5-1.01,9.1-8.13,4.87-28.82-17.11-59.36-17.07-90.56-8.76-26.97,7.19-52.74,18.1-79.46,26.08-25.14,7.51-50.54,11.14-76.36,3.03-7.67-2.41-14.86-5.84-21.85-9.8-5.37-3.04-8.05-7.43-8.14-13.48-.07-4.11-.06-8.22-.06-12.33,0-37-.02-74,.02-110.99,0-4.51.19-9.03.42-13.54.28-5.67,1.9-6.55,6.84-3.28,15.44,10.2,32.27,16.14,50.84,16.53,21.33.45,41.32-5.74,61.05-12.96,25.42-9.29,50.31-20.11,76.56-27,28.16-7.39,54.91-4.57,79.74,11.58,6.25,4.07,9.25,9.3,9.18,16.87-.22,22.2-.08,44.4-.08,66.6Z"/>
  <g>
    <path class="cls-1" d="m496.93,753.74c0-12.81-.03-25.62,0-38.42.08-29.85,20.39-55.1,49.47-61.56,34.01-7.55,68.91,16.7,73.96,51.34.56,3.84.83,7.68.83,11.55-.01,26.58-.05,53.17.06,79.75.01,2.89-.8,3.64-3.62,3.57-8.09-.18-16.19-.18-24.28,0-2.76.06-3.42-.77-3.41-3.46.1-26.82.12-53.65.04-80.47-.06-17.96-13.79-31.79-31.23-31.69-16.86.09-30.47,13.88-30.61,31.21-.12,14.98-.03,29.97-.03,44.95,0,11.96-.1,23.93.07,35.89.04,2.94-.89,3.63-3.67,3.57-8.09-.17-16.19-.19-24.28,0-2.79.07-3.39-.82-3.37-3.46.13-14.26.06-28.52.06-42.77Z"/>
    <path class="cls-1" d="m799.47,715.29c0-6.44-1.02-12.75-2.97-18.89-9.12-28.64-37.14-47.23-65.75-43.66-30.32,3.79-53.57,27.73-55.26,57.86-.79,14.09-.14,28.27-.14,42.4-.08,0-.17,0-.25,0,0,14.5.06,29.01-.06,43.51-.02,2.67.66,3.52,3.42,3.46,8.22-.19,16.44-.17,24.66,0,2.58.05,3.27-.78,3.23-3.28-.13-8.46.02-16.92-.09-25.38-.03-2.35.69-3.12,3.07-3.11,18.73.08,37.47.08,56.2,0,2.25,0,2.84.73,2.81,2.9-.11,8.46.05,16.92-.1,25.38-.05,2.57.44,3.57,3.31,3.5,8.21-.21,16.44-.2,24.65,0,2.81.07,3.35-.83,3.34-3.46-.1-27.07-.04-54.15-.07-81.22Zm-34.05,21.29c-9.41-.04-18.83-.02-28.24-.02s-18.34-.11-27.51.06c-2.77.05-3.52-.84-3.43-3.5.22-6.75-.23-13.54.34-20.25,1.43-16.78,14.96-28.81,31.57-28.53,15.8.26,29.04,13.17,29.99,29.58.39,6.74.03,13.51.2,20.27.06,2.4-1.19,2.4-2.92,2.39Z"/>
    <path class="cls-1" d="m442.78,753.94c0-12.69,0-25.38,0-38.06,0-3.26-.21-6.5-.68-9.74-4.74-32.48-32.51-55.07-65.91-53.55-30.37,1.38-56.73,28.32-57.47,59.92-.66,28.26-.15,56.55-.23,84.82,0,2.11.7,2.64,2.7,2.62,8.58-.09,17.16-.11,25.74,0,2.27.03,2.86-.74,2.83-2.92-.11-8.58.03-17.16-.09-25.74-.03-2.31.59-3.12,3.02-3.1,18.61.09,37.22.1,55.83,0,2.67-.02,3.17.95,3.14,3.36-.13,8.46.03,16.92-.1,25.37-.04,2.4.72,3.08,3.08,3.04,8.34-.13,16.68-.15,25.01,0,2.58.05,3.22-.74,3.2-3.25-.12-14.26-.06-28.52-.06-42.78Zm-34.07-17.33c-9.3-.1-18.61-.04-27.92-.04s-18.61-.09-27.92.06c-2.57.04-3.35-.75-3.21-3.27.44-8.19-.86-16.45.86-24.57,3.28-15.5,17.41-25.71,33.42-24.31,14.61,1.27,26.92,14.28,27.54,29.38.27,6.64,0,13.29.15,19.94.05,2.28-.76,2.85-2.92,2.82Z"/>
    <path class="cls-1" d="m192.38,652.52c-16.19-.03-32.38.12-48.56-.05-3.18-.03-3.67.99-3.66,3.86.12,23.32.07,46.63.07,69.95s.05,46.87-.07,70.31c-.01,2.74.73,3.4,3.41,3.38,16.43-.13,32.86-.06,49.29-.07,4.12,0,8.21-.45,12.24-1.24,33.45-6.61,56.49-32.91,59.34-67.65,3.42-41.77-30.19-78.4-72.06-78.48Zm40.61,79.75c-2.69,20.08-20.11,35.53-40.32,35.71-6.16.06-12.33-.09-18.48.06-2.26.05-2.83-.66-2.82-2.86.1-13.05.05-26.1.05-39.14s.11-25.37-.08-38.06c-.05-3.13.91-3.85,3.85-3.68,9.25.54,18.6-.96,27.75,1.52,20.04,5.41,32.89,25.25,30.06,46.46Z"/>
  </g>
</svg>