<svg width="47" height="44" viewBox="0 0 47 44" fill="none" xmlns="http://www.w3.org/2000/svg">
<g id="Group 43">
<g id="Ellipse 21" filter="url(#filter0_d_65_379)">
<ellipse cx="23.12" cy="17.5037" rx="19.12" ry="17.5037" fill="white"/>
<path d="M41.24 17.5037C41.24 26.5371 33.2124 34.0074 23.12 34.0074C13.0276 34.0074 5 26.5371 5 17.5037C5 8.47026 13.0276 1 23.12 1C33.2124 1 41.24 8.47026 41.24 17.5037Z" stroke="#FA3106" stroke-width="2"/>
</g>
<g id="Group">
<path id="Vector" d="M23.1201 25.546C22.2575 25.546 17.3625 21.5265 15.4218 19.0362C15.1414 18.7304 14.8827 18.3372 14.6455 17.9003L14.5808 17.7693C14.5376 17.66 14.4729 17.5508 14.4298 17.3979C14.3867 17.2887 14.3436 17.1576 14.3004 17.0265C14.1495 16.5023 14.0632 16.0217 14.0632 15.5629C14.0632 12.7231 16.349 10.4076 19.1523 10.4076C20.7049 10.4076 22.1712 11.1285 23.1201 12.3518C24.0689 11.1285 25.5352 10.4076 27.0878 10.4076C29.8911 10.4076 32.1769 12.7231 32.1769 15.5629C32.1769 16.0654 32.0691 16.5241 31.9397 17.0047C31.9181 17.1576 31.8534 17.2887 31.8103 17.4197L31.7887 17.4634C31.7672 17.5071 31.7456 17.5508 31.724 17.5945C31.7025 17.6382 31.6809 17.7037 31.6378 17.7693V17.7911L31.5947 17.9003C31.3575 18.3591 31.0987 18.7304 30.8184 19.0581C28.8776 21.5265 23.9826 25.546 23.1201 25.546ZM15.6374 17.4634C15.8315 17.8129 16.0255 18.0969 16.2196 18.3154L16.2412 18.3591C18.2251 20.8712 22.2575 23.9731 23.1201 24.41C23.9826 23.9513 28.0151 20.8712 29.9774 18.3372L29.9989 18.2935C30.2146 18.0751 30.4086 17.7911 30.5812 17.4416V17.3979L30.6674 17.2668C30.689 17.2231 30.7105 17.1794 30.7321 17.1139C30.7537 17.0702 30.7752 17.0047 30.7968 16.9392C30.8184 16.8518 30.8615 16.7862 30.8615 16.7207V16.6989C30.9693 16.2838 31.0556 15.9125 31.0556 15.5192C31.0556 13.2692 29.2658 11.4561 27.0447 11.4561C25.5783 11.4561 24.2629 12.2425 23.5513 13.5532L23.1201 14.4707L22.6457 13.6188C21.934 12.3081 20.6186 11.5217 19.1523 11.5217C16.9312 11.4998 15.1414 13.3129 15.1414 15.5629C15.1414 15.9125 15.2061 16.3057 15.3355 16.6989L15.3571 16.7644C15.3786 16.8299 15.4002 16.9173 15.4433 17.0047L15.4649 17.0265C15.4864 17.1139 15.5296 17.2013 15.5943 17.2887L15.6805 17.4197V17.4634H15.6374Z" fill="#FA3106"/>
</g>
</g>
<defs>
<filter id="filter0_d_65_379" x="0" y="0" width="46.24" height="43.0073" filterUnits="userSpaceOnUse" color-interpolation-filters="sRGB">
<feFlood flood-opacity="0" result="BackgroundImageFix"/>
<feColorMatrix in="SourceAlpha" type="matrix" values="0 0 0 0 0 0 0 0 0 0 0 0 0 0 0 0 0 0 127 0" result="hardAlpha"/>
<feOffset dy="4"/>
<feGaussianBlur stdDeviation="2"/>
<feColorMatrix type="matrix" values="0 0 0 0 0.945098 0 0 0 0 0.945098 0 0 0 0 0.94902 0 0 0 1 0"/>
<feBlend mode="normal" in2="BackgroundImageFix" result="effect1_dropShadow_65_379"/>
<feBlend mode="normal" in="SourceGraphic" in2="effect1_dropShadow_65_379" result="shape"/>
</filter>
</defs>
</svg>
