<svg width="32" height="32" viewBox="0 0 32 32" fill="none" xmlns="http://www.w3.org/2000/svg">
<path d="M13.3333 22.7596C12.7811 22.7596 12.3333 23.2073 12.3333 23.7596C12.3333 24.3119 12.7811 24.7596 13.3333 24.7596H18.6667C19.219 24.7596 19.6667 24.3119 19.6667 23.7596C19.6667 23.2073 19.219 22.7596 18.6667 22.7596H13.3333Z" fill="#2D264B"/>
<path fill-rule="evenodd" clip-rule="evenodd" d="M16.2811 1.67184C16.0938 1.66497 15.9063 1.66497 15.7189 1.67184C14.4824 1.7172 13.369 2.13767 12.1482 2.83759C10.9585 3.51967 9.58886 4.51479 7.85102 5.77742L7.75655 5.84605C6.01869 7.10867 4.64901 8.10379 3.63267 9.02448C2.58976 9.96926 1.8458 10.8983 1.42056 12.0602C1.35614 12.2362 1.2982 12.4146 1.24686 12.5948C0.907897 13.7848 0.963714 14.9737 1.25213 16.3511C1.53319 17.6933 2.05636 19.3034 2.72018 21.3464L2.75626 21.4575C3.42005 23.5004 3.94321 25.1106 4.50477 26.3617C5.08102 27.6455 5.73466 28.6401 6.70835 29.4036C6.85585 29.5193 7.00755 29.6295 7.16312 29.734C8.19014 30.4241 9.33806 30.7384 10.7371 30.8897C12.1005 31.0372 13.7935 31.0372 15.9416 31.0372H16.0584C18.2065 31.0372 19.8995 31.0372 21.2629 30.8897C22.662 30.7384 23.8099 30.4241 24.8369 29.734C24.9925 29.6295 25.1442 29.5193 25.2917 29.4036C26.2654 28.6401 26.919 27.6455 27.4952 26.3617C28.0568 25.1105 28.58 23.5004 29.2438 21.4574L29.2799 21.3463C29.9436 19.3035 30.4668 17.6932 30.7479 16.3511C31.0363 14.9737 31.0921 13.7848 30.7532 12.5948C30.7018 12.4146 30.6439 12.2363 30.5795 12.0602C30.1542 10.8983 29.4103 9.96925 28.3673 9.02448C27.351 8.10378 25.9813 7.10867 24.2434 5.84604L24.149 5.7774C22.4111 4.51478 21.0415 3.51967 19.8518 2.83759C18.631 2.13767 17.5176 1.7172 16.2811 1.67184ZM15.7923 3.6705C15.9307 3.66542 16.0693 3.66542 16.2077 3.6705C17.0017 3.69962 17.7924 3.96225 18.8571 4.57265C19.9421 5.19473 21.2252 6.1253 23.0207 7.42978C24.8161 8.73426 26.0977 9.66703 27.0246 10.5067C27.9341 11.3307 28.4282 12.0015 28.7013 12.7476C28.7489 12.8777 28.7917 13.0095 28.8297 13.1427C29.0473 13.9068 29.0419 14.74 28.7903 15.9411C28.534 17.1653 28.0455 18.6732 27.3597 20.7839C26.6739 22.8946 26.1828 24.4016 25.6706 25.5427C25.1681 26.6623 24.6827 27.3395 24.0576 27.8297C23.9485 27.9152 23.8364 27.9967 23.7214 28.074C23.062 28.517 22.2679 28.7694 21.0478 28.9013C19.8044 29.0358 18.2193 29.0372 16 29.0372C13.7807 29.0372 12.1956 29.0358 10.9522 28.9013C9.73207 28.7694 8.93799 28.517 8.27858 28.074C8.16359 27.9967 8.05147 27.9152 7.94245 27.8297C7.31728 27.3395 6.83194 26.6623 6.32939 25.5427C5.81723 24.4016 5.32614 22.8946 4.64033 20.7839C3.95453 18.6732 3.46601 17.1653 3.20967 15.9411C2.95814 14.74 2.95271 13.9068 3.17035 13.1427C3.2083 13.0095 3.25113 12.8777 3.29874 12.7476C3.57177 12.0015 4.06589 11.3307 4.97542 10.5067C5.90234 9.66703 7.18388 8.73426 8.97934 7.42978C10.7748 6.1253 12.0579 5.19473 13.143 4.57265C14.2076 3.96225 14.9984 3.69962 15.7923 3.6705Z" fill="#2D264B"/>
</svg>
