<?xml version="1.0" encoding="iso-8859-1"?>
<!-- Uploaded to: SVG Repo, www.svgrepo.com, Generator: SVG Repo Mixer Tools -->
<!DOCTYPE svg PUBLIC "-//W3C//DTD SVG 1.1//EN" "http://www.w3.org/Graphics/SVG/1.1/DTD/svg11.dtd">
<svg fill="#000000" height="800px" width="800px" version="1.1" id="Capa_1" xmlns="http://www.w3.org/2000/svg" xmlns:xlink="http://www.w3.org/1999/xlink" 
	 viewBox="0 0 53 53" xml:space="preserve">
<path d="M48.419,15.943c-0.04-0.092-0.104-0.164-0.165-0.236c-0.72-3.216-2.886-5.043-4.55-6.442
	c-0.248-0.208-0.488-0.41-0.716-0.61l-0.019-0.017c-0.339-0.307-0.396-0.684-0.383-0.945c0.022-0.492,0.289-0.976,0.713-1.294
	c0.035-0.026,0.06-0.061,0.093-0.089c0.122-0.101,0.237-0.208,0.342-0.326c0.044-0.05,0.086-0.101,0.127-0.154
	c0.097-0.124,0.181-0.256,0.258-0.394c0.029-0.052,0.06-0.103,0.085-0.157c0.073-0.153,0.129-0.313,0.175-0.479
	c0.013-0.047,0.033-0.092,0.044-0.14C44.47,4.447,44.501,4.227,44.501,4V3c0-1.654-1.346-3-3-3h-11c-1.654,0-3,1.346-3,3v1
	c0,0.23,0.032,0.452,0.081,0.667c0.012,0.05,0.031,0.097,0.046,0.147c0.048,0.168,0.107,0.331,0.182,0.486
	c0.024,0.049,0.051,0.095,0.078,0.143c0.086,0.154,0.183,0.299,0.293,0.435c0.03,0.036,0.058,0.073,0.089,0.108
	c0.143,0.16,0.299,0.306,0.473,0.433c0.004,0.003,0.007,0.007,0.011,0.01c0.416,0.299,0.709,0.763,0.764,1.212
	c0.039,0.322-0.042,0.604-0.24,0.838c-0.055,0.064-0.117,0.127-0.181,0.183c-0.221,0.189-0.453,0.383-0.692,0.58
	c-0.597,0.495-1.249,1.04-1.877,1.668c-0.614-0.624-1.248-1.161-1.822-1.644c-0.248-0.208-0.489-0.411-0.717-0.611l-0.02-0.017
	c-0.338-0.307-0.395-0.683-0.383-0.945c0.022-0.491,0.289-0.976,0.713-1.294c0.035-0.026,0.06-0.061,0.093-0.089
	c0.122-0.101,0.237-0.208,0.342-0.326c0.044-0.05,0.086-0.101,0.127-0.154c0.097-0.124,0.181-0.256,0.258-0.394
	c0.029-0.052,0.06-0.103,0.085-0.157c0.073-0.153,0.129-0.313,0.175-0.479c0.013-0.047,0.033-0.092,0.044-0.14
	C25.47,4.447,25.501,4.227,25.501,4V3c0-1.654-1.346-3-3-3h-11c-1.654,0-3,1.346-3,3v1c0,0.23,0.032,0.452,0.081,0.667
	c0.012,0.05,0.031,0.097,0.046,0.147C8.675,4.983,8.734,5.145,8.809,5.3C8.833,5.349,8.86,5.395,8.887,5.443
	C8.972,5.597,9.07,5.742,9.18,5.878c0.03,0.036,0.058,0.073,0.089,0.108c0.143,0.16,0.299,0.306,0.473,0.433
	c0.004,0.003,0.007,0.007,0.011,0.01c0.416,0.299,0.709,0.763,0.764,1.212c0.039,0.322-0.042,0.604-0.24,0.838
	c-0.055,0.064-0.117,0.127-0.181,0.183C9.868,8.856,9.629,9.054,9.383,9.258C7.323,10.961,4.501,13.295,4.501,18v6.183
	c-0.002,0.031-0.001,0.061,0,0.092V48.22c0,2.636,2.145,4.78,4.781,4.78H24.72c0.637,0,1.243-0.13,1.799-0.358
	C27.091,52.878,27.681,53,28.281,53H43.72c2.636,0,4.78-2.145,4.78-4.781V18c0-0.449-0.032-0.869-0.08-1.276
	C48.521,16.482,48.53,16.203,48.419,15.943z M46.492,26h-3c-0.552,0-1,0.447-1,1s0.448,1,1,1h3v5h-5c-0.552,0-1,0.447-1,1
	s0.448,1,1,1h5v2h-3c-0.552,0-1,0.447-1,1s0.448,1,1,1h3v2h-9V24h9V26z M29.501,3c0-0.552,0.449-1,1-1h11c0.551,0,1,0.448,1,1v1
	c0,0.148-0.038,0.29-0.099,0.42c-0.016,0.034-0.043,0.061-0.063,0.094c-0.056,0.09-0.122,0.174-0.206,0.245
	C41.958,4.902,41.743,5,41.501,5h-11c-0.245,0-0.461-0.098-0.635-0.245c-0.035-0.029-0.07-0.058-0.1-0.091
	c-0.068-0.075-0.126-0.157-0.169-0.25c-0.01-0.022-0.017-0.046-0.026-0.069c-0.04-0.108-0.07-0.223-0.07-0.345V3z M27.816,12.443
	c0.593-0.609,1.237-1.143,1.864-1.662c0.249-0.206,0.491-0.406,0.723-0.606c0.145-0.126,0.277-0.259,0.397-0.4
	c0.56-0.659,0.809-1.503,0.702-2.377C31.485,7.263,31.439,7.133,31.406,7h9.279c-0.044,0.198-0.089,0.397-0.098,0.601
	c-0.044,0.973,0.32,1.863,1.054,2.532l0.027,0.025c0.238,0.209,0.49,0.42,0.748,0.638c1.492,1.255,3.126,2.653,3.78,4.99
	c-2.726,1.033-5.107,1.245-7.419,0.657c-1.043-0.266-2.067-0.644-3.057-1.009c-2.155-0.793-4.387-1.603-7.011-1.391
	c-0.046-0.106-0.093-0.212-0.143-0.315c-0.005-0.011-0.01-0.023-0.016-0.034c-0.218-0.445-0.463-0.857-0.729-1.24
	C27.819,12.45,27.818,12.447,27.816,12.443z M10.501,3c0-0.552,0.449-1,1-1h11c0.551,0,1,0.448,1,1v1c0,0.148-0.038,0.29-0.099,0.42
	c-0.016,0.034-0.043,0.061-0.063,0.094c-0.056,0.09-0.122,0.174-0.206,0.245C22.958,4.902,22.743,5,22.501,5h-11
	c-0.245,0-0.461-0.098-0.635-0.245c-0.035-0.029-0.07-0.058-0.1-0.091c-0.068-0.075-0.126-0.157-0.169-0.25
	c-0.01-0.022-0.017-0.046-0.026-0.069c-0.04-0.108-0.07-0.223-0.07-0.345V3z M10.658,10.799c0.256-0.212,0.506-0.418,0.745-0.624
	c0.145-0.126,0.277-0.259,0.397-0.4c0.56-0.659,0.809-1.503,0.702-2.377C12.485,7.263,12.439,7.133,12.406,7h9.279
	c-0.045,0.199-0.089,0.398-0.098,0.602c-0.044,0.974,0.321,1.864,1.054,2.532l0.027,0.024c0.238,0.209,0.49,0.421,0.749,0.639
	c0.954,0.802,1.971,1.658,2.751,2.781c0.011,0.016,0.02,0.032,0.031,0.048c0.168,0.246,0.322,0.507,0.465,0.78
	c0.025,0.047,0.05,0.095,0.074,0.142c0.144,0.292,0.273,0.6,0.38,0.929c0.009,0.029,0.017,0.058,0.026,0.087
	c0.109,0.346,0.198,0.711,0.258,1.104c0.001,0.008,0.002,0.017,0.003,0.025c0.061,0.409,0.096,0.843,0.096,1.308v4.626
	c-4.105-1.368-7.321-0.671-11.018,0.905c-3.62,1.545-6.14,1.556-9.982,0.022V18C6.501,14.236,8.709,12.41,10.658,10.799z
	 M6.501,48.22V25.695c1.838,0.671,3.452,1.021,5.03,1.021c1.834,0,3.636-0.45,5.736-1.346c4.141-1.766,6.821-1.931,10.234-0.613
	v23.461c0,0.235-0.037,0.464-0.096,0.686c-0.01,0.041-0.025,0.079-0.037,0.119c-0.066,0.209-0.149,0.413-0.262,0.601
	c-0.001,0.002-0.002,0.004-0.003,0.005c-0.255,0.42-0.624,0.776-1.078,1.022l-0.258,0.14C25.443,50.924,25.09,51,24.72,51H9.281
	C7.748,51,6.501,49.753,6.501,48.22z M43.72,51H28.593c0.1-0.139,0.184-0.289,0.269-0.439c0.057-0.099,0.114-0.197,0.163-0.3
	c0.061-0.129,0.115-0.26,0.165-0.394c0.057-0.151,0.103-0.305,0.144-0.461c0.028-0.109,0.06-0.216,0.08-0.328
	c0.052-0.28,0.086-0.564,0.086-0.854c0-0.001,0-0.003,0-0.004v-0.001V24.074c0-0.001,0-0.002,0-0.004V18
	c0-0.506-0.038-0.98-0.098-1.434c-0.006-0.043-0.009-0.088-0.015-0.131c-0.021-0.144-0.048-0.282-0.075-0.421
	c2.008-0.056,3.815,0.595,5.715,1.296c1.038,0.383,2.111,0.778,3.255,1.069c1.024,0.261,2.051,0.393,3.1,0.393
	c1.625,0,3.309-0.33,5.103-0.968c0.001,0.068,0.014,0.126,0.014,0.195v4H35.492v21h11.009v5.219C46.501,49.752,45.253,51,43.72,51z"
	/>
</svg>