<svg width="45" height="49" viewBox="0 0 45 49" fill="none" xmlns="http://www.w3.org/2000/svg">
<path d="M14.1832 22.0531C14.1133 22.0021 14.034 21.9653 13.9499 21.9449C13.8658 21.9245 13.7785 21.9208 13.6929 21.9342C13.6074 21.9475 13.5253 21.9776 13.4514 22.0226C13.3775 22.0677 13.3132 22.1268 13.2621 22.1968L11.7005 24.3353C11.5974 24.4765 11.5546 24.6529 11.5815 24.8256C11.6085 24.9983 11.7029 25.1533 11.8441 25.2564C11.9853 25.3595 12.1616 25.4023 12.3344 25.3754C12.5071 25.3484 12.6621 25.254 12.7652 25.1128L14.3268 22.9742C14.3779 22.9043 14.4147 22.825 14.4351 22.7409C14.4555 22.6568 14.4591 22.5695 14.4458 22.4839C14.4325 22.3984 14.4024 22.3163 14.3573 22.2424C14.3123 22.1685 14.2531 22.1042 14.1832 22.0531ZM27.8609 15.81C27.8338 15.7278 27.7907 15.6518 27.7341 15.5862C27.6776 15.5207 27.6086 15.4669 27.5313 15.428C27.4539 15.3892 27.3697 15.3659 27.2833 15.3596C27.197 15.3533 27.1103 15.3641 27.0281 15.3913L24.4942 16.2297C24.4111 16.2561 24.3341 16.2988 24.2676 16.3552C24.2011 16.4116 24.1465 16.4807 24.1069 16.5584C24.0673 16.636 24.0435 16.7208 24.0369 16.8077C24.0302 16.8947 24.0409 16.9821 24.0683 17.0649C24.0957 17.1476 24.1392 17.2242 24.1964 17.29C24.2536 17.3558 24.3232 17.4097 24.4013 17.4484C24.4795 17.4871 24.5645 17.51 24.6515 17.5156C24.7385 17.5213 24.8258 17.5096 24.9082 17.4812L27.4421 16.6428C27.6081 16.5879 27.7454 16.4693 27.824 16.3131C27.9025 16.1569 27.9158 15.976 27.8609 15.81ZM32.6692 23.2115L30.6481 24.936C30.5819 24.9921 30.5275 25.0607 30.4878 25.1379C30.4482 25.2151 30.4242 25.2993 30.4172 25.3858C30.4102 25.4723 30.4204 25.5593 30.4471 25.6418C30.4738 25.7244 30.5165 25.8009 30.5729 25.8668C30.6292 25.9328 30.698 25.9871 30.7753 26.0264C30.8526 26.0658 30.9369 26.0895 31.0234 26.0962C31.1099 26.1029 31.1969 26.0924 31.2793 26.0654C31.3618 26.0384 31.4381 25.9954 31.5039 25.9389L33.5249 24.2145C33.6559 24.1004 33.7366 23.9393 33.7494 23.7661C33.7623 23.5928 33.7062 23.4215 33.5935 23.2894C33.4807 23.1573 33.3204 23.075 33.1473 23.0604C32.9742 23.0459 32.8024 23.1002 32.6692 23.2116V23.2115ZM37.821 19.4298C36.7833 18.4037 35.4082 17.7894 33.9515 17.7013C33.8208 13.7758 30.6029 10.61 26.623 10.4938C26.6255 10.4364 26.6274 10.3788 26.6274 10.3208C26.6256 9.39592 26.2929 8.50221 25.6896 7.80123C25.0863 7.10025 24.252 6.63826 23.3377 6.49879C23.2744 5.70654 23.3273 4.14402 24.4836 2.95328C25.0945 2.33858 25.8751 1.92029 26.7252 1.75199C26.8964 1.71633 27.0464 1.61413 27.1422 1.46788C27.238 1.32162 27.2718 1.1433 27.2361 0.972136C27.2005 0.800971 27.0983 0.650983 26.952 0.555169C26.8058 0.459355 26.6274 0.425564 26.4563 0.461228C25.3483 0.683063 24.3319 1.23109 23.5378 2.03491C22.0588 3.55779 21.9413 5.4659 22.0163 6.52638C21.1353 6.69788 20.3412 7.17002 19.7697 7.8621C19.1982 8.55418 18.8848 9.42325 18.883 10.3208C18.883 10.3788 18.8847 10.4364 18.8874 10.4938C14.9075 10.61 11.6895 13.776 11.5588 17.7014C8.41592 17.9009 5.92106 20.4893 5.92106 23.6421C5.91985 24.4267 6.07567 25.2036 6.37936 25.9271C6.68305 26.6505 7.12845 27.3059 7.68933 27.8545C8.03766 28.1974 8.42628 28.4967 8.84667 28.746L9.92966 34.0476L9.93063 34.0527L11.0068 39.3209L11.0079 39.3262L11.8596 43.4958C11.9763 44.0483 12.2795 44.5437 12.7183 44.8991C13.1571 45.2544 13.7047 45.448 14.2693 45.4474H31.241C31.8056 45.448 32.3533 45.2544 32.7921 44.899C33.2308 44.5437 33.534 44.0482 33.6507 43.4958L34.5023 39.327L34.5037 39.32L35.5797 34.0527L35.5806 34.0476L36.6634 28.7466C37.4473 28.2881 38.1149 27.6552 38.6145 26.8969C39.1141 26.1386 39.4322 25.2753 39.5441 24.3742C39.6561 23.473 39.5589 22.5582 39.26 21.7007C38.9612 20.8432 38.4688 20.0661 37.821 19.4298ZM22.7552 7.77338C23.2588 7.77461 23.7507 7.92507 24.1688 8.20575C24.5869 8.48642 24.9125 8.88472 25.1043 9.35033C25.2962 9.81594 25.3457 10.328 25.2467 10.8217C25.1477 11.3155 24.9046 11.7688 24.5481 12.1245C24.1915 12.4801 23.7376 12.7221 23.2436 12.8199C22.7496 12.9177 22.2377 12.8669 21.7726 12.6738C21.3074 12.4808 20.9099 12.1543 20.6303 11.7355C20.3507 11.3167 20.2014 10.8244 20.2014 10.3208C20.203 9.64458 20.4728 8.99661 20.9516 8.51904C21.4303 8.04147 22.079 7.7733 22.7552 7.77338ZM11.3833 34.5765H17.7436C17.2566 35.8496 17.2551 37.2574 17.7394 38.5316H12.1912L11.3833 34.5765ZM32.3591 43.232C32.3039 43.4871 32.1627 43.7155 31.9592 43.8788C31.7556 44.0422 31.502 44.1305 31.241 44.1291H14.2693C14.0084 44.1305 13.7548 44.0421 13.5513 43.8788C13.3477 43.7155 13.2065 43.4871 13.1514 43.232L12.4606 39.8499H18.4645C18.6506 40.1005 18.8573 40.3351 19.0823 40.5514C19.1448 40.6113 19.2185 40.6583 19.2991 40.6898C19.3798 40.7212 19.4658 40.7365 19.5524 40.7347C19.6389 40.7329 19.7243 40.714 19.8035 40.6793C19.8828 40.6445 19.9544 40.5944 20.0144 40.5319C20.0743 40.4695 20.1213 40.3958 20.1528 40.3151C20.1842 40.2345 20.1995 40.1484 20.1977 40.0619C20.1959 39.9753 20.177 39.89 20.1422 39.8107C20.1074 39.7314 20.0574 39.6598 19.9949 39.5999C19.7547 39.3694 19.5423 39.1116 19.3621 38.8317C19.3588 38.8268 19.3558 38.8219 19.3524 38.8171C18.8499 38.0266 18.6247 37.0913 18.7122 36.1587C18.7997 35.2261 19.1951 34.349 19.8359 33.6658C20.4767 32.9826 21.3266 32.5319 22.2518 32.3849C23.1769 32.2378 24.1246 32.4028 24.9457 32.8536C25.7668 33.3045 26.4146 34.0157 26.7869 34.8753C27.1593 35.7348 27.2352 36.6938 27.0025 37.6012C26.7699 38.5086 26.242 39.3128 25.502 39.8872C24.762 40.4615 23.852 40.7734 22.9152 40.7736C22.5911 40.7738 22.268 40.7368 21.9523 40.6635C21.8678 40.6432 21.7802 40.6399 21.6944 40.6536C21.6086 40.6674 21.5264 40.698 21.4524 40.7436C21.3785 40.7893 21.3143 40.8491 21.2636 40.9196C21.2129 40.9902 21.1766 41.07 21.1568 41.1546C21.1371 41.2393 21.1343 41.3269 21.1485 41.4126C21.1628 41.4983 21.1938 41.5804 21.2399 41.6541C21.286 41.7277 21.3461 41.7915 21.417 41.8419C21.4878 41.8922 21.5679 41.928 21.6526 41.9473C22.7052 42.1927 23.8066 42.1249 24.8211 41.7522C25.8357 41.3796 26.7191 40.7183 27.3626 39.8499H33.0499L32.3591 43.232ZM33.3192 38.5316H28.0869C28.5754 37.2585 28.5754 35.8496 28.0869 34.5765H34.1271L33.3192 38.5316ZM35.7718 27.736C35.089 28.0918 34.3304 28.2774 33.5605 28.2769H32.7753C32.6005 28.2769 32.4328 28.3464 32.3092 28.47C32.1856 28.5936 32.1162 28.7613 32.1162 28.9361C32.1162 29.1109 32.1856 29.2786 32.3092 29.4022C32.4328 29.5259 32.6005 29.5953 32.7753 29.5953H33.5605C34.111 29.5951 34.659 29.5207 35.1897 29.3742L34.3964 33.2581H27.3626C26.8482 32.5626 26.1779 31.9975 25.4055 31.6081C24.6331 31.2187 23.7802 31.0159 22.9152 31.0159C22.0502 31.0159 21.1973 31.2187 20.4249 31.6081C19.6525 31.9975 18.9822 32.5626 18.4678 33.2581H11.114L10.3207 29.3742C10.8514 29.5207 11.3994 29.5951 11.9499 29.5953H30.1386C30.3134 29.5953 30.4811 29.5259 30.6047 29.4022C30.7283 29.2786 30.7978 29.1109 30.7978 28.9361C30.7978 28.7613 30.7283 28.5936 30.6047 28.47C30.4811 28.3464 30.3134 28.2769 30.1386 28.2769H11.9499C10.7024 28.2809 9.50388 27.7917 8.61535 26.916C8.17919 26.4897 7.83276 25.9804 7.59647 25.4182C7.36018 24.8559 7.23881 24.252 7.23951 23.6421C7.23951 21.0865 9.35257 19.0074 11.9499 19.0074H12.2271C12.3167 19.0074 12.4054 18.9891 12.4877 18.9537C12.57 18.9183 12.6442 18.8664 12.7058 18.8014C12.7675 18.7363 12.8151 18.6593 12.846 18.5752C12.8769 18.4911 12.8902 18.4016 12.8853 18.3121C12.8779 18.1914 12.8739 18.0705 12.8731 17.9496C12.8731 14.5623 15.6725 11.8065 19.1134 11.8065C19.1362 11.8065 19.1587 11.8076 19.1814 11.8078C19.4762 12.5125 19.9727 13.1143 20.6086 13.5376C21.2445 13.9608 21.9913 14.1866 22.7552 14.1866C23.5191 14.1866 24.2659 13.9608 24.9018 13.5376C25.5376 13.1143 26.0342 12.5125 26.329 11.8078C26.3518 11.8076 26.3743 11.8065 26.3969 11.8065C29.8379 11.8065 32.6373 14.5623 32.6373 17.9496C32.6373 18.0733 32.6315 18.1969 32.625 18.3121C32.6201 18.4016 32.6335 18.4911 32.6644 18.5752C32.6952 18.6594 32.7429 18.7363 32.8046 18.8014C32.8662 18.8665 32.9404 18.9183 33.0227 18.9537C33.1051 18.9891 33.1937 19.0074 33.2833 19.0074H33.5605C34.8082 19.0023 36.0072 19.4917 36.895 20.3684C37.3312 20.7947 37.6776 21.304 37.9139 21.8662C38.1502 22.4285 38.2716 23.0323 38.2709 23.6422C38.2688 24.4879 38.0347 25.3168 37.594 26.0387C37.1533 26.7605 36.5231 27.3476 35.7718 27.736ZM21.9278 24.4398L19.8964 22.7273C19.7627 22.6146 19.5897 22.5596 19.4155 22.5745C19.2413 22.5893 19.0802 22.6727 18.9675 22.8064C18.8548 22.9401 18.7999 23.113 18.8147 23.2872C18.8295 23.4614 18.913 23.6226 19.0466 23.7353L21.0781 25.4477C21.1441 25.5044 21.2208 25.5473 21.3035 25.5742C21.3863 25.6011 21.4736 25.6113 21.5603 25.6042C21.647 25.5972 21.7315 25.5731 21.8088 25.5332C21.8862 25.4934 21.9549 25.4386 22.011 25.3721C22.0671 25.3056 22.1094 25.2286 22.1356 25.1456C22.1618 25.0626 22.1713 24.9753 22.1636 24.8886C22.1558 24.802 22.131 24.7177 22.0906 24.6406C22.0501 24.5636 21.9948 24.4954 21.9278 24.4398ZM27.849 20.3251C27.814 20.2452 27.7634 20.1729 27.7003 20.1127C27.6372 20.0524 27.5627 20.0052 27.4812 19.974C27.3997 19.9427 27.3128 19.928 27.2255 19.9306C27.1383 19.9331 27.0524 19.953 26.9729 19.9891C26.8934 20.0251 26.8218 20.0766 26.7624 20.1406C26.703 20.2045 26.6568 20.2796 26.6266 20.3615C26.5964 20.4434 26.5828 20.5305 26.5865 20.6177C26.5903 20.7049 26.6113 20.7905 26.6484 20.8695L27.7391 23.2753C27.7745 23.3547 27.8252 23.4264 27.8883 23.4862C27.9515 23.5459 28.0259 23.5926 28.1072 23.6235C28.1884 23.6544 28.275 23.6689 28.362 23.6662C28.4489 23.6635 28.5344 23.6436 28.6136 23.6077C28.6928 23.5718 28.7641 23.5206 28.8234 23.457C28.8827 23.3934 28.9289 23.3187 28.9592 23.2372C28.9895 23.1557 29.0034 23.069 29.0001 22.9821C28.9968 22.8952 28.9763 22.8098 28.9398 22.7309L27.849 20.3251ZM19.3127 18.3126C19.4706 18.3127 19.6234 18.256 19.7431 18.153C19.8628 18.0499 19.9415 17.9073 19.9649 17.751C19.9883 17.5948 19.9548 17.4354 19.8705 17.3018C19.7863 17.1682 19.6568 17.0693 19.5058 17.0231L16.9536 16.2404C16.8706 16.2143 16.7833 16.2048 16.6967 16.2125C16.61 16.2203 16.5258 16.2451 16.4488 16.2856C16.3718 16.3261 16.3036 16.3814 16.248 16.4484C16.1925 16.5153 16.1508 16.5926 16.1253 16.6758C16.0998 16.7589 16.091 16.8463 16.0994 16.9329C16.1078 17.0195 16.1333 17.1036 16.1743 17.1802C16.2154 17.2569 16.2712 17.3247 16.3386 17.3797C16.406 17.4348 16.4836 17.4759 16.567 17.5008L19.1192 18.2834C19.1818 18.3028 19.2471 18.3126 19.3127 18.3126Z" fill="black"/>
</svg>
