<svg width="35" height="36" viewBox="0 0 35 36" fill="none" xmlns="http://www.w3.org/2000/svg">
<path d="M24.0625 14.2084L10.9375 6.63965" stroke="#5C5757" stroke-width="2" stroke-linecap="round" stroke-linejoin="round"/>
<path d="M30.625 23.8334V12.1667C30.6245 11.6552 30.4895 11.1529 30.2335 10.71C29.9775 10.2672 29.6096 9.89951 29.1667 9.64377L18.9583 3.81044C18.5149 3.55445 18.012 3.41968 17.5 3.41968C16.988 3.41968 16.4851 3.55445 16.0417 3.81044L5.83333 9.64377C5.39038 9.89951 5.02247 10.2672 4.76651 10.71C4.51054 11.1529 4.37552 11.6552 4.375 12.1667V23.8334C4.37552 24.3448 4.51054 24.8472 4.76651 25.29C5.02247 25.7328 5.39038 26.1005 5.83333 26.3563L16.0417 32.1896C16.4851 32.4456 16.988 32.5804 17.5 32.5804C18.012 32.5804 18.5149 32.4456 18.9583 32.1896L29.1667 26.3563C29.6096 26.1005 29.9775 25.7328 30.2335 25.29C30.4895 24.8472 30.6245 24.3448 30.625 23.8334Z" stroke="#5C5757" stroke-width="2" stroke-linecap="round" stroke-linejoin="round"/>
<path d="M4.76875 10.6499L17.5 18.0145L30.2313 10.6499" stroke="#5C5757" stroke-width="2" stroke-linecap="round" stroke-linejoin="round"/>
<path d="M17.5 32.7V18" stroke="#5C5757" stroke-width="2" stroke-linecap="round" stroke-linejoin="round"/>
</svg>
