<svg width="32" height="32" viewBox="0 0 32 32" fill="none" xmlns="http://www.w3.org/2000/svg">
<path d="M18.8482 4.48193H18.3482V4.50687L18.3507 4.53168L18.8482 4.48193ZM18.8482 4.48191H19.3482V4.45697L19.3457 4.43216L18.8482 4.48191ZM22.1305 5.84153L22.4471 6.22851V6.22851L22.1305 5.84153ZM24.8223 5.96616L24.4687 6.31972V6.31972L24.8223 5.96616ZM26.0338 7.17771L26.3874 6.82415H26.3873L26.0338 7.17771ZM26.9654 8.47493L27.4648 8.45002V8.45002L26.9654 8.47493ZM26.1584 9.86949L25.7714 9.55287L25.7714 9.55287L26.1584 9.86949ZM27.5181 13.1518L27.4683 13.6493L27.5181 13.1518ZM29.0748 13.5673L29.4455 13.2318L29.4455 13.2318L29.0748 13.5673ZM29.0748 18.4327L29.4455 18.7682L29.0748 18.4327ZM27.5182 18.8482L27.4685 18.3507L27.5182 18.8482ZM24.8099 19.649L24.3479 19.4576L24.8099 19.649ZM26.1586 22.1301L25.7716 22.4467L25.7874 22.466L25.8051 22.4837L26.1586 22.1301ZM26.1586 22.1301L26.5456 21.8135L26.5298 21.7942L26.5122 21.7766L26.1586 22.1301ZM23.5251 26.9649L23.55 27.4642L23.55 27.4642L23.5251 26.9649ZM22.1305 26.1579L21.8139 26.5449L22.1305 26.1579ZM18.8482 27.5179L18.3507 27.4682L18.8482 27.5179ZM18.4327 29.0748L18.7682 29.4455L18.7682 29.4455L18.4327 29.0748ZM13.5673 29.0748L13.2318 29.4455L13.2318 29.4455L13.5673 29.0748ZM13.1518 27.5181L13.6493 27.4683L13.1518 27.5181ZM12.351 24.8094L12.5424 24.3475L12.5423 24.3475L12.351 24.8094ZM9.86942 26.1585L10.186 26.5455H10.186L9.86942 26.1585ZM8.47483 26.9655L8.44992 27.4648L8.44993 27.4648L8.47483 26.9655ZM7.17762 26.0339L6.82406 26.3874H6.82406L7.17762 26.0339ZM5.96607 24.8223L6.31963 24.4688H6.31963L5.96607 24.8223ZM5.84145 22.1306L6.22843 22.4472H6.22843L5.84145 22.1306ZM4.4819 18.8482L4.53165 18.3507H4.53165L4.4819 18.8482ZM2.9252 18.4327L2.55448 18.7682L2.55448 18.7682L2.9252 18.4327ZM2.66666 16.8567H2.16666H2.66666ZM2.66666 15.1433H2.16666H2.66666ZM2.9252 13.5673L2.55448 13.2318H2.55448L2.9252 13.5673ZM4.48206 13.1518L4.43231 12.6543H4.43231L4.48206 13.1518ZM5.84166 9.86907L5.44166 10.1691L5.44799 10.1775L5.45468 10.1857L5.84166 9.86907ZM5.84166 9.86907L6.24166 9.56907L6.23532 9.56062L6.22863 9.55245L5.84166 9.86907ZM5.96613 7.17711L5.61258 6.82355H5.61258L5.96613 7.17711ZM7.17768 5.96556L7.53123 6.31912V6.31912L7.17768 5.96556ZM9.86948 5.84095L10.1861 5.45397L9.86948 5.84095ZM13.1518 4.48176L13.6493 4.53151V4.53151L13.1518 4.48176ZM13.5673 2.92523L13.2318 2.55451V2.55451L13.5673 2.92523ZM18.4327 2.92523L18.0972 3.29596L18.0972 3.29596L18.4327 2.92523ZM19.3482 4.48193V4.48191H18.3482V4.48193H19.3482ZM19.8403 6.72864C19.7907 6.7081 19.688 6.64802 19.5883 6.24908C19.4889 5.85119 19.43 5.27548 19.3457 4.43218L18.3507 4.53168C18.4316 5.34149 18.4967 6.00562 18.6182 6.49152C18.7393 6.97638 18.9544 7.44407 19.4576 7.65252L19.8403 6.72864ZM21.8139 5.45455C21.1579 5.99122 20.7092 6.35667 20.3576 6.56771C20.005 6.7793 19.8899 6.74918 19.8403 6.72864L19.4576 7.65252C19.9608 7.86096 20.4436 7.68232 20.8721 7.42515C21.3016 7.16743 21.8172 6.74386 22.4471 6.22851L21.8139 5.45455ZM23.5499 4.53521C23.2153 4.51852 22.932 4.63704 22.6708 4.80037C22.4211 4.95651 22.1402 5.18758 21.8139 5.45455L22.4471 6.22851C22.794 5.94472 23.0179 5.76273 23.2009 5.64829C23.3725 5.54103 23.45 5.53147 23.5001 5.53397L23.5499 4.53521ZM25.1758 5.61261C24.8811 5.31794 24.6269 5.06234 24.3953 4.88363C24.1524 4.69621 23.8835 4.55185 23.5499 4.53521L23.5001 5.53397C23.5514 5.53653 23.627 5.55383 23.7844 5.67533C23.9531 5.80554 24.1551 6.00614 24.4687 6.31972L25.1758 5.61261ZM26.3873 6.82415L25.1758 5.61261L24.4687 6.31972L25.6802 7.53126L26.3873 6.82415ZM27.4648 8.45002C27.4481 8.11643 27.3038 7.84753 27.1163 7.60464C26.9376 7.37305 26.682 7.11883 26.3874 6.82415L25.6802 7.53126C25.9938 7.84484 26.1944 8.04681 26.3246 8.21556C26.4461 8.37301 26.4634 8.44859 26.466 8.49983L27.4648 8.45002ZM26.5454 10.1861C26.8124 9.85981 27.0435 9.57889 27.1996 9.32915C27.3629 9.06792 27.4814 8.78468 27.4648 8.45002L26.466 8.49983C26.4685 8.55001 26.4589 8.62747 26.3517 8.79902C26.2372 8.98207 26.0552 9.20602 25.7714 9.55287L26.5454 10.1861ZM25.2713 12.1597C25.2507 12.1101 25.2206 11.995 25.4322 11.6424C25.6433 11.2908 26.0087 10.842 26.5454 10.1861L25.7714 9.55287C25.2561 10.1828 24.8325 10.6984 24.5748 11.1279C24.3176 11.5564 24.139 12.0391 24.3474 12.5424L25.2713 12.1597ZM27.5678 12.6543C26.7245 12.57 26.1488 12.5111 25.7509 12.4117C25.3519 12.312 25.2918 12.2093 25.2713 12.1597L24.3474 12.5424C24.5559 13.0456 25.0236 13.2607 25.5084 13.3818C25.9943 13.5033 26.6585 13.5684 27.4683 13.6493L27.5678 12.6543ZM29.4455 13.2318C29.2207 12.9834 28.9366 12.8669 28.6364 12.7977C28.3494 12.7315 27.9873 12.6963 27.5678 12.6543L27.4683 13.6493C27.9142 13.6939 28.2013 13.7236 28.4116 13.7721C28.6088 13.8176 28.6703 13.8656 28.7041 13.9028L29.4455 13.2318ZM29.8333 15.1433C29.8333 14.7266 29.8343 14.3661 29.7969 14.076C29.7577 13.7717 29.6696 13.4795 29.4455 13.2318L28.704 13.9028C28.7385 13.9409 28.7797 14.0066 28.8051 14.2038C28.8323 14.4152 28.8333 14.6999 28.8333 15.1433H29.8333ZM29.8333 16.8567V15.1433H28.8333V16.8567H29.8333ZM29.4455 18.7682C29.6696 18.5206 29.7577 18.2283 29.7969 17.9241C29.8343 17.6339 29.8333 17.2734 29.8333 16.8567H28.8333C28.8333 17.3002 28.8323 17.5848 28.8051 17.7962C28.7797 17.9935 28.7385 18.0592 28.704 18.0972L29.4455 18.7682ZM27.568 19.3457C27.9874 19.3038 28.3494 19.2685 28.6364 19.2023C28.9366 19.1331 29.2207 19.0166 29.4455 18.7682L28.7041 18.0972C28.6703 18.1345 28.6088 18.1825 28.4117 18.2279C28.2013 18.2764 27.9143 18.3061 27.4685 18.3507L27.568 19.3457ZM25.2718 19.8403C25.2923 19.7907 25.3524 19.688 25.7513 19.5883C26.1491 19.4889 26.7248 19.43 27.568 19.3457L27.4685 18.3507C26.6587 18.4317 25.9947 18.4967 25.5088 18.6182C25.024 18.7393 24.5563 18.9544 24.3479 19.4576L25.2718 19.8403ZM26.5456 21.8135C26.009 21.1577 25.6436 20.7091 25.4327 20.3575C25.2211 20.005 25.2512 19.8899 25.2718 19.8403L24.3479 19.4576C24.1395 19.9608 24.3181 20.4435 24.5752 20.872C24.8329 21.3014 25.2564 21.817 25.7716 22.4467L26.5456 21.8135ZM26.5122 21.7766L26.5122 21.7766L25.8051 22.4837L25.8051 22.4837L26.5122 21.7766ZM27.4648 23.5494C27.4815 23.2148 27.363 22.9316 27.1997 22.6704C27.0436 22.4206 26.8125 22.1398 26.5456 21.8135L25.7716 22.4468C26.0554 22.7936 26.2373 23.0174 26.3518 23.2005C26.459 23.372 26.4686 23.4494 26.4661 23.4996L27.4648 23.5494ZM26.3874 25.1753C26.6821 24.8806 26.9377 24.6264 27.1164 24.3948C27.3038 24.1519 27.4482 23.883 27.4648 23.5494L26.4661 23.4996C26.4635 23.5509 26.4462 23.6264 26.3247 23.7839C26.1945 23.9526 25.9939 24.1546 25.6803 24.4682L26.3874 25.1753ZM25.1759 26.3868L26.3874 25.1753L25.6803 24.4682L24.4688 25.6797L25.1759 26.3868ZM23.55 27.4642C23.8836 27.4476 24.1525 27.3032 24.3954 27.1158C24.627 26.9371 24.8812 26.6815 25.1759 26.3868L24.4688 25.6797C24.1552 25.9933 23.9532 26.1939 23.7845 26.3241C23.627 26.4456 23.5514 26.4629 23.5002 26.4655L23.55 27.4642ZM21.8139 26.5449C22.1402 26.8119 22.4211 27.0429 22.6709 27.1991C22.9321 27.3624 23.2153 27.4809 23.55 27.4642L23.5002 26.4655C23.45 26.468 23.3725 26.4584 23.201 26.3512C23.018 26.2367 22.794 26.0547 22.4472 25.7709L21.8139 26.5449ZM19.8404 25.2708C19.8899 25.2503 20.005 25.2201 20.3576 25.4317C20.7093 25.6428 21.158 26.0082 21.8139 26.5449L22.4472 25.7709C21.8173 25.2556 21.3016 24.832 20.8722 24.5743C20.4437 24.3171 19.9609 24.1385 19.4577 24.3469L19.8404 25.2708ZM19.3457 27.5677C19.4301 26.7242 19.4889 26.1484 19.5884 25.7505C19.6881 25.3514 19.7908 25.2913 19.8404 25.2708L19.4577 24.3469C18.9544 24.5554 18.7394 25.0231 18.6182 25.508C18.4968 25.994 18.4317 26.6582 18.3507 27.4682L19.3457 27.5677ZM18.7682 29.4455C19.0166 29.2207 19.1331 28.9366 19.2023 28.6363C19.2685 28.3493 19.3038 27.9872 19.3457 27.5677L18.3507 27.4682C18.3061 27.9142 18.2764 28.2012 18.2279 28.4116C18.1824 28.6088 18.1344 28.6704 18.0972 28.7041L18.7682 29.4455ZM16.8567 29.8334C17.2734 29.8334 17.6339 29.8343 17.924 29.7969C18.2283 29.7577 18.5205 29.6696 18.7682 29.4455L18.0972 28.7041C18.0591 28.7385 17.9934 28.7797 17.7962 28.8051C17.5848 28.8324 17.3001 28.8334 16.8567 28.8334V29.8334ZM15.1433 29.8334H16.8567V28.8334H15.1433V29.8334ZM13.2318 29.4455C13.4794 29.6696 13.7717 29.7577 14.0759 29.7969C14.3661 29.8343 14.7266 29.8334 15.1433 29.8334V28.8334C14.6998 28.8334 14.4152 28.8324 14.2038 28.8051C14.0065 28.7797 13.9408 28.7385 13.9028 28.7041L13.2318 29.4455ZM12.6543 27.5678C12.6962 27.9873 12.7315 28.3494 12.7977 28.6364C12.8669 28.9366 12.9834 29.2207 13.2318 29.4455L13.9028 28.7041C13.8656 28.6704 13.8175 28.6088 13.7721 28.4117C13.7236 28.2013 13.6939 27.9143 13.6493 27.4683L12.6543 27.5678ZM12.1597 25.2713C12.2092 25.2919 12.3119 25.3519 12.4116 25.7509C12.5111 26.1488 12.5699 26.7245 12.6543 27.5678L13.6493 27.4683C13.5683 26.6585 13.5032 25.9944 13.3818 25.5085C13.2606 25.0236 13.0456 24.5559 12.5424 24.3475L12.1597 25.2713ZM10.186 26.5455C10.842 26.0088 11.2907 25.6433 11.6424 25.4323C11.995 25.2207 12.1101 25.2508 12.1597 25.2713L12.5423 24.3475C12.0391 24.139 11.5563 24.3177 11.1278 24.5748C10.6984 24.8326 10.1827 25.2561 9.5528 25.7715L10.186 26.5455ZM8.44993 27.4648C8.78459 27.4815 9.06783 27.363 9.32907 27.1997C9.5788 27.0435 9.85973 26.8125 10.186 26.5455L9.5528 25.7715C9.20594 26.0553 8.98199 26.2373 8.79894 26.3518C8.62738 26.459 8.54991 26.4686 8.49974 26.4661L8.44993 27.4648ZM6.82406 26.3874C7.11874 26.6821 7.37296 26.9377 7.60455 27.1164C7.84743 27.3038 8.11634 27.4482 8.44992 27.4648L8.49974 26.4661C8.44849 26.4635 8.37292 26.4462 8.21547 26.3247C8.04672 26.1945 7.84475 25.9939 7.53117 25.6803L6.82406 26.3874ZM5.61252 25.1759L6.82406 26.3874L7.53117 25.6803L6.31963 24.4688L5.61252 25.1759ZM4.53512 23.55C4.55176 23.8836 4.69611 24.1525 4.88354 24.3954C5.06225 24.627 5.31784 24.8812 5.61252 25.1759L6.31963 24.4688C6.00605 24.1552 5.80545 23.9532 5.67523 23.7845C5.55374 23.627 5.53643 23.5515 5.53388 23.5002L4.53512 23.55ZM5.45447 21.8139C5.1875 22.1402 4.95642 22.4212 4.80028 22.6709C4.63696 22.9321 4.51843 23.2154 4.53512 23.55L5.53388 23.5002C5.53137 23.45 5.54094 23.3726 5.6482 23.201C5.76264 23.018 5.94464 22.794 6.22843 22.4472L5.45447 21.8139ZM6.7286 19.8403C6.74914 19.8899 6.77926 20.005 6.56766 20.3576C6.35661 20.7093 5.99115 21.158 5.45447 21.8139L6.22843 22.4472C6.7438 21.8173 7.16737 21.3016 7.4251 20.8722C7.68228 20.4437 7.86092 19.9609 7.65248 19.4576L6.7286 19.8403ZM4.43215 19.3457C5.27544 19.4301 5.85115 19.4889 6.24904 19.5884C6.64798 19.6881 6.70806 19.7907 6.7286 19.8403L7.65248 19.4576C7.44403 18.9544 6.97634 18.7394 6.49148 18.6182C6.00558 18.4968 5.34146 18.4317 4.53165 18.3507L4.43215 19.3457ZM2.55448 18.7682C2.77931 19.0166 3.06341 19.1331 3.36361 19.2024C3.65061 19.2685 4.01264 19.3038 4.43215 19.3457L4.53165 18.3507C4.08572 18.3061 3.79868 18.2764 3.58833 18.2279C3.39118 18.1825 3.32964 18.1345 3.29593 18.0972L2.55448 18.7682ZM2.16666 16.8567C2.16666 17.2734 2.16569 17.6339 2.20308 17.9241C2.24229 18.2283 2.33036 18.5206 2.55448 18.7682L3.29593 18.0972C3.2615 18.0592 3.22029 17.9935 3.19487 17.7962C3.16763 17.5848 3.16666 17.3002 3.16666 16.8567H2.16666ZM2.16666 15.1433L2.16666 16.8567H3.16666L3.16666 15.1433H2.16666ZM2.55448 13.2318C2.33036 13.4795 2.24229 13.7717 2.20308 14.076C2.16569 14.3661 2.16666 14.7266 2.16666 15.1433H3.16666C3.16666 14.6999 3.16763 14.4152 3.19487 14.2038C3.22029 14.0066 3.2615 13.9409 3.29593 13.9028L2.55448 13.2318ZM4.43231 12.6543C4.01275 12.6962 3.65068 12.7315 3.36366 12.7977C3.06344 12.8669 2.77932 12.9834 2.55448 13.2318L3.29593 13.9028C3.32963 13.8656 3.39118 13.8176 3.58836 13.7721C3.79875 13.7236 4.08583 13.6939 4.53181 13.6493L4.43231 12.6543ZM6.7291 12.1597C6.70857 12.2092 6.64849 12.3119 6.24947 12.4116C5.85151 12.5111 5.27572 12.57 4.43231 12.6543L4.53181 13.6493C5.34173 13.5683 6.00594 13.5032 6.49189 13.3818C6.97678 13.2606 7.44453 13.0456 7.65298 12.5423L6.7291 12.1597ZM5.45468 10.1857C5.99146 10.8418 6.35699 11.2906 6.56809 11.6423C6.77976 11.995 6.74963 12.1101 6.7291 12.1597L7.65298 12.5423C7.86143 12.0391 7.68273 11.5563 7.42552 11.1277C7.16775 10.6982 6.7441 10.1825 6.22864 9.55245L5.45468 10.1857ZM5.44166 10.1691L5.44166 10.1691L6.24166 9.56907L6.24166 9.56907L5.44166 10.1691ZM4.53518 8.44941C4.51849 8.78409 4.63704 9.06736 4.80038 9.3286C4.95654 9.57836 5.18765 9.85933 5.45468 10.1857L6.22863 9.55245C5.9448 9.20554 5.76276 8.98154 5.64829 8.79846C5.541 8.62686 5.53143 8.54939 5.53394 8.49923L4.53518 8.44941ZM5.61258 6.82355C5.3179 7.11823 5.06231 7.37245 4.8836 7.60403C4.69617 7.84692 4.55182 8.11583 4.53518 8.44941L5.53394 8.49923C5.53649 8.44798 5.5538 8.3724 5.67529 8.21496C5.80551 8.04621 6.00611 7.84424 6.31969 7.53066L5.61258 6.82355ZM6.82412 5.61201L5.61258 6.82355L6.31969 7.53066L7.53123 6.31912L6.82412 5.61201ZM8.44999 4.53461C8.1164 4.55125 7.84749 4.6956 7.60461 4.88303C7.37302 5.06174 7.1188 5.31733 6.82412 5.61201L7.53123 6.31912C7.84481 6.00554 8.04678 5.80494 8.21553 5.67472C8.37297 5.55323 8.44855 5.53592 8.4998 5.53337L8.44999 4.53461ZM10.1861 5.45397C9.85979 5.18699 9.57886 4.95591 9.32912 4.79977C9.06789 4.63645 8.78465 4.51792 8.44999 4.53461L8.4998 5.53337C8.54997 5.53086 8.62744 5.54043 8.799 5.64769C8.98205 5.76214 9.206 5.94414 9.55286 6.22793L10.1861 5.45397ZM12.1597 6.72812C12.1101 6.74865 11.9951 6.77878 11.6425 6.56717C11.2908 6.35612 10.842 5.99066 10.1861 5.45397L9.55286 6.22793C10.1828 6.7433 10.6984 7.16688 11.1279 7.42462C11.5564 7.68179 12.0392 7.86044 12.5424 7.652L12.1597 6.72812ZM12.6543 4.43201C12.57 5.27519 12.5111 5.85081 12.4117 6.24864C12.312 6.64749 12.2093 6.70757 12.1597 6.72812L12.5424 7.652C13.0456 7.44356 13.2607 6.97593 13.3818 6.4911C13.5033 6.00525 13.5684 5.3412 13.6493 4.53151L12.6543 4.43201ZM13.2318 2.55451C12.9834 2.77934 12.8669 3.0634 12.7977 3.3636C12.7315 3.65057 12.6962 4.01256 12.6543 4.43201L13.6493 4.53151C13.6939 4.08564 13.7236 3.79865 13.7721 3.58832C13.8175 3.39122 13.8655 3.32968 13.9028 3.29596L13.2318 2.55451ZM15.1433 2.16669C14.7266 2.16669 14.3661 2.16572 14.0759 2.20311C13.7717 2.24232 13.4794 2.33039 13.2318 2.55451L13.9028 3.29596C13.9408 3.26153 14.0065 3.22032 14.2038 3.1949C14.4152 3.16766 14.6998 3.16669 15.1433 3.16669V2.16669ZM16.8567 2.16669H15.1433V3.16669H16.8567V2.16669ZM18.7682 2.55451C18.5205 2.33039 18.2283 2.24232 17.924 2.20311C17.6339 2.16572 17.2734 2.16669 16.8567 2.16669V3.16669C17.3001 3.16669 17.5848 3.16766 17.7962 3.1949C17.9934 3.22032 18.0591 3.26153 18.0972 3.29596L18.7682 2.55451ZM19.3457 4.43216C19.3037 4.01266 19.2685 3.65063 19.2023 3.36364C19.1331 3.06343 19.0166 2.77934 18.7682 2.55451L18.0972 3.29596C18.1344 3.32967 18.1824 3.39121 18.2279 3.58835C18.2764 3.79871 18.3061 4.08574 18.3507 4.53167L19.3457 4.43216ZM20.8333 16C20.8333 18.6694 18.6694 20.8334 16 20.8334V21.8334C19.2216 21.8334 21.8333 19.2217 21.8333 16H20.8333ZM16 11.1667C18.6694 11.1667 20.8333 13.3306 20.8333 16H21.8333C21.8333 12.7784 19.2216 10.1667 16 10.1667V11.1667ZM11.1667 16C11.1667 13.3306 13.3306 11.1667 16 11.1667V10.1667C12.7783 10.1667 10.1667 12.7784 10.1667 16H11.1667ZM16 20.8334C13.3306 20.8334 11.1667 18.6694 11.1667 16H10.1667C10.1667 19.2217 12.7783 21.8334 16 21.8334V20.8334Z" fill="#222222"/>
</svg>
