<!DOCTYPE svg PUBLIC "-//W3C//DTD SVG 1.1//EN" "http://www.w3.org/Graphics/SVG/1.1/DTD/svg11.dtd">
<!-- Uploaded to: SVG Repo, www.svgrepo.com, Transformed by: SVG Repo Mixer Tools -->
<svg fill="#000000" height="64px" width="64px" version="1.1" id="Layer_1" xmlns="http://www.w3.org/2000/svg" xmlns:xlink="http://www.w3.org/1999/xlink" viewBox="0 0 512 512" xml:space="preserve">
<g id="SVGRepo_bgCarrier" stroke-width="0"/>
<g id="SVGRepo_tracerCarrier" stroke-linecap="round" stroke-linejoin="round"/>
<g id="SVGRepo_iconCarrier"> <g> <g> <path d="M503.467,273.067h-8.533v-128c0-4.71-3.814-8.533-8.533-8.533h-25.6V76.8c0-4.71-3.814-8.533-8.533-8.533h-80.06 l-6.178-12.348c-1.98-3.968-6.69-5.751-10.803-4.105l-25.071,10.027L288.538,3.576c-2.586-3.61-7.484-4.642-11.29-2.381 L163.576,68.557c-0.486-0.085-0.93-0.29-1.442-0.29H42.667C19.14,68.267,0,87.407,0,110.934v392.533 C0,508.177,3.815,512,8.534,512H486.4c4.719,0,8.533-3.823,8.533-8.533v-128h8.533c4.719,0,8.533-3.823,8.533-8.533V281.6 C512,276.89,508.186,273.067,503.467,273.067z M443.734,85.334v51.2H406.34l-25.6-51.2H443.734z M354.279,70.571l32.981,65.963 H189.381L354.279,70.571z M279.211,19.875l34.645,48.495L143.42,136.534H82.338L279.211,19.875z M42.667,85.334h92.595l-86.4,51.2 h-6.195c-14.114,0-25.6-11.486-25.6-25.6S28.553,85.334,42.667,85.334z M477.867,494.934h-460.8v-350.08 c7.151,5.41,15.957,8.747,25.6,8.747h102.374c0.009,0,0.017,0,0.026,0c0.009,0,0.017,0,0.026,0h332.774v119.467h-51.2 c-28.237,0-51.2,22.963-51.2,51.2c0,28.237,22.963,51.2,51.2,51.2h51.2V494.934z M494.934,358.4h-68.267 c-18.825,0-34.133-15.309-34.133-34.133c0-18.825,15.309-34.133,34.133-34.133h68.267V358.4z"/> </g> </g> </g>
</svg>